<?xml version="1.0" standalone="no"?>
<!DOCTYPE svg PUBLIC "-//W3C//DTD SVG 20010904//EN"
 "http://www.w3.org/TR/2001/REC-SVG-20010904/DTD/svg10.dtd">
<svg version="1.0" xmlns="http://www.w3.org/2000/svg"
 width="24.000000pt" height="36.000000pt" viewBox="0 0 24.000000 36.000000"
 preserveAspectRatio="xMidYMid meet">
<metadata>
Created by potrace 1.10, written by Peter Selinger 2001-2011
</metadata>
<g transform="translate(0.000000,36.000000) scale(0.050000,-0.050000)"
fill="#0669f8" stroke="none">
<path d="M30 701 c-13 -21 58 -101 90 -101 28 0 25 24 -11 76 -34 47 -59 56
-79 25z"/>
<path d="M371 676 c-36 -52 -39 -76 -11 -76 32 0 103 80 90 101 -20 31 -45 22
-79 -25z"/>
<path d="M58 518 c-67 -72 -68 -75 -22 -130 102 -121 306 -121 408 0 127 152
-248 278 -386 130z m132 -88 c0 -20 -10 -40 -23 -44 -26 -9 -53 49 -35 77 18
30 58 8 58 -33z m163 19 c17 -44 -25 -85 -56 -54 -25 25 -9 85 23 85 12 0 27
-14 33 -31z"/>
<path d="M48 231 c-16 -64 13 -114 34 -60 22 56 21 109 -2 109 -10 0 -25 -22
-32 -49z"/>
<path d="M120 206 c0 -62 75 -166 120 -166 45 0 120 104 120 166 l0 67 -120 0
-120 0 0 -67z"/>
<path d="M380 257 c1 -55 25 -116 42 -106 28 18 21 82 -12 109 -24 20 -30 20
-30 -3z"/>
<path d="M93 30 c-9 -23 4 -30 57 -30 53 0 66 7 57 30 -15 39 -99 39 -114 0z"/>
<path d="M273 30 c-9 -23 4 -30 57 -30 53 0 66 7 57 30 -15 39 -99 39 -114 0z"/>
</g>
</svg>
